<?xml version="1.0" standalone="no"?>
<!DOCTYPE svg PUBLIC "-//W3C//DTD SVG 20010904//EN"
 "http://www.w3.org/TR/2001/REC-SVG-20010904/DTD/svg10.dtd">
<svg version="1.0" xmlns="http://www.w3.org/2000/svg"
 width="319.000000pt" height="314.000000pt" viewBox="0 0 319.000000 314.000000"
 preserveAspectRatio="xMidYMid meet">

<g transform="translate(0.000000,314.000000) scale(0.100000,-0.100000)"
fill="#000000" stroke="none">
<path d="M80 3020 c0 -28 2 -30 40 -30 l40 0 0 -420 0 -420 35 0 35 0 2 418 3
417 38 0 c35 0 37 2 37 33 l0 32 -115 0 -115 0 0 -30z"/>
<path d="M350 2600 l0 -450 30 0 30 0 0 210 c0 181 2 211 15 217 9 3 18 3 21
0 3 -3 20 -100 37 -216 l32 -211 33 0 c24 0 32 4 32 18 0 9 -16 109 -34 221
l-34 204 19 27 c27 36 42 146 33 255 -10 144 -36 175 -146 175 l-68 0 0 -450z
m121 371 c22 -17 23 -25 23 -152 1 -153 -7 -179 -54 -179 l-30 0 0 168 c0 93
3 172 7 175 11 12 30 8 54 -12z"/>
<path d="M686 3018 c-8 -49 -86 -811 -86 -842 0 -22 4 -26 29 -26 26 0 29 3
35 46 3 26 6 65 6 88 0 76 7 86 55 86 l43 0 6 -62 c4 -35 7 -83 9 -108 2 -43
4 -45 35 -48 21 -2 32 1 32 10 0 7 -16 202 -35 433 -19 231 -35 428 -35 438 0
14 -9 17 -45 17 -42 0 -44 -2 -49 -32z m54 -206 c1 -48 7 -150 14 -227 7 -77
11 -143 9 -147 -2 -5 -19 -8 -38 -8 -19 0 -36 3 -38 8 -2 4 4 84 14 177 10 94
18 198 19 233 0 39 4 61 10 57 6 -3 10 -45 10 -93z"/>
<path d="M890 2600 l0 -450 30 0 30 0 1 278 c1 311 -2 315 53 -58 35 -236 30
-220 71 -220 l35 0 0 450 0 450 -30 0 -30 0 -1 -307 -1 -308 -33 225 c-19 124
-39 262 -45 308 l-12 82 -34 0 -34 0 0 -450z"/>
<path d="M1197 3026 c-73 -68 -57 -227 43 -426 47 -93 60 -135 70 -225 13
-112 -4 -174 -47 -175 -30 0 -43 32 -43 106 l0 74 -30 0 -30 0 0 -86 c0 -47 5
-94 10 -105 17 -31 68 -52 112 -46 76 10 101 56 100 180 -1 119 -14 170 -83
317 -32 69 -63 145 -68 170 -23 101 -6 175 39 175 34 0 50 -36 50 -112 l0 -63
30 0 30 0 0 70 c0 76 -21 145 -51 160 -35 19 -104 12 -132 -14z"/>
<path d="M1479 3035 c-51 -28 -54 -50 -53 -440 0 -380 2 -396 48 -434 26 -21
89 -25 124 -7 50 26 62 61 62 181 l0 105 -30 0 -30 0 0 -93 c0 -102 -14 -137
-54 -137 -50 0 -51 7 -51 392 0 344 1 360 19 374 25 18 37 18 62 0 16 -12 20
-29 22 -115 l4 -101 29 0 29 0 0 89 c0 112 -7 144 -36 176 -19 20 -32 25 -71
25 -26 -1 -60 -7 -74 -15z"/>
<path d="M1710 2600 l0 -450 33 0 32 0 0 210 c0 193 1 209 18 214 23 6 21 14
51 -199 35 -243 30 -225 72 -225 29 0 34 3 30 18 -2 9 -19 105 -37 213 l-32
197 24 48 c22 44 24 62 24 184 0 208 -20 240 -150 240 l-65 0 0 -450z m132
366 c24 -36 22 -283 -2 -311 -7 -8 -23 -15 -36 -15 l-24 0 0 168 c0 93 3 172
7 175 9 9 46 -2 55 -17z"/>
<path d="M1990 2600 l0 -450 30 0 30 0 0 450 0 450 -30 0 -30 0 0 -450z"/>
<path d="M2120 2600 l0 -450 30 0 30 0 2 188 3 187 42 6 c88 11 113 68 113
253 0 219 -26 266 -151 266 l-69 0 0 -450z m136 344 c12 -29 15 -68 12 -174
-3 -120 -6 -141 -22 -159 -11 -12 -29 -21 -40 -19 -20 3 -21 10 -23 188 -1
101 1 188 3 192 3 4 16 8 30 8 19 0 29 -8 40 -36z"/>
<path d="M2352 3018 c3 -31 5 -33 41 -31 l37 1 0 -419 0 -419 35 0 35 0 2 418
3 417 38 0 c35 0 37 2 37 33 l0 32 -116 0 -115 0 3 -32z"/>
<path d="M2809 3048 c0 -2 -22 -203 -48 -448 l-47 -445 29 -3 c16 -2 31 -2 33
1 2 2 7 51 12 108 l7 104 46 3 46 3 6 -53 c4 -29 7 -79 7 -110 l0 -58 35 0
c19 0 35 3 35 8 0 4 -16 196 -35 427 -19 231 -35 430 -35 443 0 19 -5 22 -45
22 -25 0 -45 -1 -46 -2z m51 -253 c1 -49 7 -148 14 -220 7 -71 11 -133 9 -137
-2 -5 -19 -8 -38 -8 -19 0 -36 3 -38 8 -3 4 4 84 14 177 10 94 19 202 19 240
2 102 18 52 20 -60z"/>
<path d="M3010 2600 l0 -450 30 0 30 0 0 450 0 450 -30 0 -30 0 0 -450z"/>
<path d="M1605 1860 c-3 -5 1 -10 10 -10 9 0 13 5 10 10 -3 6 -8 10 -10 10 -2
0 -7 -4 -10 -10z"/>
<path d="M1866 1791 c-7 -11 18 -33 27 -24 4 3 7 12 7 20 0 15 -26 18 -34 4z"/>
<path d="M1330 1770 c0 -23 35 -28 43 -6 7 18 -1 26 -25 26 -11 0 -18 -7 -18
-20z"/>
<path d="M1100 1710 c0 -5 5 -10 10 -10 6 0 10 5 10 10 0 6 -4 10 -10 10 -5 0
-10 -4 -10 -10z"/>
<path d="M2140 1670 c0 -5 5 -10 11 -10 5 0 7 5 4 10 -3 6 -8 10 -11 10 -2 0
-4 -4 -4 -10z"/>
<path d="M900 1499 c0 -5 5 -7 10 -4 6 3 10 8 10 11 0 2 -4 4 -10 4 -5 0 -10
-5 -10 -11z"/>
<path d="M1760 1500 c0 -5 5 -10 10 -10 6 0 10 5 10 10 0 6 -4 10 -10 10 -5 0
-10 -4 -10 -10z"/>
<path d="M2260 1440 c0 -5 5 -10 10 -10 6 0 10 5 10 10 0 6 -4 10 -10 10 -5 0
-10 -4 -10 -10z"/>
<path d="M1133 1334 c-8 -22 18 -37 36 -20 7 8 10 19 7 25 -10 16 -36 13 -43
-5z"/>
<path d="M745 1270 c3 -5 8 -10 11 -10 2 0 4 5 4 10 0 6 -5 10 -11 10 -5 0 -7
-4 -4 -10z"/>
<path d="M2445 1210 c3 -5 8 -10 11 -10 2 0 4 5 4 10 0 6 -5 10 -11 10 -5 0
-7 -4 -4 -10z"/>
<path d="M1550 1015 c-26 -32 13 -81 48 -59 34 22 22 74 -18 74 -10 0 -23 -7
-30 -15z"/>
<path d="M760 1010 c0 -5 5 -10 10 -10 6 0 10 5 10 10 0 6 -4 10 -10 10 -5 0
-10 -4 -10 -10z"/>
<path d="M2090 975 c-16 -19 -4 -52 22 -61 30 -9 62 29 48 57 -13 22 -52 25
-70 4z"/>
<path d="M2424 956 c-7 -19 3 -36 22 -36 10 0 14 8 12 22 -4 26 -26 36 -34 14z"/>
<path d="M690 740 c0 -5 5 -10 10 -10 6 0 10 5 10 10 0 6 -4 10 -10 10 -5 0
-10 -4 -10 -10z"/>
<path d="M1115 690 c-3 -5 1 -10 10 -10 9 0 13 5 10 10 -3 6 -8 10 -10 10 -2
0 -7 -4 -10 -10z"/>
<path d="M2410 639 c0 -5 5 -7 10 -4 6 3 10 8 10 11 0 2 -4 4 -10 4 -5 0 -10
-5 -10 -11z"/>
<path d="M860 505 c0 -18 24 -30 39 -21 16 10 1 36 -20 36 -10 0 -19 -7 -19
-15z"/>
<path d="M1704 475 c-7 -18 3 -35 21 -35 15 0 24 19 18 38 -6 17 -32 15 -39
-3z"/>
<path d="M2220 470 c0 -5 4 -10 9 -10 6 0 13 5 16 10 3 6 -1 10 -9 10 -9 0
-16 -4 -16 -10z"/>
<path d="M1030 280 c0 -5 7 -10 16 -10 8 0 12 5 9 10 -3 6 -10 10 -16 10 -5 0
-9 -4 -9 -10z"/>
<path d="M2080 230 c0 -5 5 -10 10 -10 6 0 10 5 10 10 0 6 -4 10 -10 10 -5 0
-10 -4 -10 -10z"/>
<path d="M1285 220 c-3 -5 1 -10 10 -10 9 0 13 5 10 10 -3 6 -8 10 -10 10 -2
0 -7 -4 -10 -10z"/>
<path d="M1786 174 c-11 -27 -7 -43 14 -54 40 -22 80 26 48 58 -17 17 -55 15
-62 -4z"/>
</g>
</svg>
